<?xml version="1.0" encoding="utf-8"?>
<!-- Generator: Adobe Illustrator 23.0.6, SVG Export Plug-In . SVG Version: 6.00 Build 0)  -->
<svg version="1.1" id="Layer_1" xmlns="http://www.w3.org/2000/svg" xmlns:xlink="http://www.w3.org/1999/xlink" x="0px" y="0px"
	 viewBox="0 0 255.12 141.73" style="enable-background:new 0 0 255.12 141.73;" xml:space="preserve">
<style type="text/css">
	.st0{stroke:#000000;stroke-miterlimit:10;}
	.st1{stroke:#000000;stroke-linecap:round;stroke-linejoin:round;stroke-miterlimit:10;}
</style>
<rect x="51.07" y="45.83" class="st0" width="4.24" height="30.63"/>
<polygon class="st1" points="63.01,45.83 68.2,45.83 61.62,59.93 69.24,76.46 63.7,76.46 56.6,60.45 "/>
<polygon class="st1" points="76.24,45.83 82.13,45.83 88.53,76.46 83.69,76.46 79.71,52.58 79.53,51.54 74.77,76.46 70.45,76.46 "/>
<polygon class="st1" points="90.17,45.83 106.09,45.83 106.09,51.8 100.55,51.8 100.73,76.46 95.62,76.46 95.71,51.71 90.17,51.63 
	"/>
<polygon class="st1" points="122.79,45.83 108.34,45.83 108.34,63.57 122.79,63.57 122.79,58.29 113.01,58.29 113.01,51.45 
	122.79,51.63 "/>
<rect x="108.34" y="70.92" class="st1" width="14.45" height="5.54"/>
<rect x="132.74" y="71.27" class="st1" width="14.45" height="5.54"/>
<polygon class="st1" points="132.74,45.83 147.62,45.83 147.62,51.71 140.79,65.21 135.42,65.21 142.08,51.8 132.74,51.63 "/>
<path class="st1" d="M164.79,50.09l-4.22,4.54v15.05c0,0-2.4,5-4.87,0V52.36l5.9-6.16c0,0-2.86-1.17-6.55,0c0,0-4.28,1.23-4.22,7.2
	l0.26,17.39c0,0,1.62,6.19,7.59,6.01c0,0,5.32,0.13,6.1-5.54C164.79,71.27,165.51,55.35,164.79,50.09z"/>
<rect x="168.39" y="45.93" class="st0" width="4.24" height="30.63"/>
<polygon class="st1" points="180.33,45.93 185.52,45.93 178.94,60.03 186.55,76.56 181.02,76.56 173.92,60.55 "/>
<polygon class="st1" points="188.54,45.93 193.35,45.93 193.35,57.62 199.32,57.62 199.32,45.93 204.05,45.93 204.05,76.11 
	199.51,76.11 199.51,63.07 193.48,63.13 193.28,76.11 188.54,76.11 "/>
</svg>
